<svg width="684" height="252" viewBox="0 0 684 252" fill="none" xmlns="http://www.w3.org/2000/svg">
<rect x="37.1519" y="45.7112" width="119.089" height="7.11064" fill="black"/>
<ellipse cx="165.402" cy="49.2665" rx="9.16071" ry="9.14225" fill="#FFD600" stroke="black" stroke-width="6.09483"/>
<rect width="119.089" height="7.11064" transform="matrix(-1 0 0 1 190.848 199.098)" fill="black"/>
<ellipse rx="9.16071" ry="9.14225" transform="matrix(-1 0 0 1 62.5981 202.653)" fill="#FFD600" stroke="black" stroke-width="6.09483"/>
<path d="M197.791 49.489V7.11064H228V0H0V7.11064H30.2095V49.4905C30.2095 85.3276 54.149 116.046 86.9245 126.001C54.1485 136.238 30.2095 166.671 30.2095 202.511V244.891L0 244.889V252H228V244.889H197.791V202.511C197.791 166.674 173.851 135.955 141.076 126.001C173.852 115.761 197.791 85.3287 197.791 49.4901V49.489ZM190.666 202.51V244.89L37.3355 244.888V202.509C37.3355 162.121 70.1095 129.412 110.581 129.412H117.421C157.889 129.698 190.666 162.406 190.666 202.509L190.666 202.51ZM117.421 122.586H110.58C71.5355 122.586 39.33 91.8684 37.62 53.1865L37.335 46.0759V7.11013H190.665V49.49C190.665 89.5925 157.889 122.587 117.42 122.587L117.421 122.586Z" fill="black"/>
<path d="M270.958 101L293.092 34.7H302.068L324.202 101H316.246L310.228 82.64H284.524L278.506 101H270.958ZM286.87 75.5H307.882L297.376 43.472L286.87 75.5ZM355.218 123.644C351.818 123.644 348.486 123.236 345.222 122.42C341.958 121.672 338.83 120.516 335.838 118.952L338.49 112.526C343.522 115.314 349.03 116.708 355.014 116.708C365.486 116.708 370.722 111.948 370.722 102.428V95.594C365.418 99.334 359.876 101.204 354.096 101.204C349.812 101.204 346.106 100.184 342.978 98.144C339.85 96.036 337.402 93.146 335.634 89.474C333.934 85.734 333.084 81.416 333.084 76.52C333.084 71.624 333.934 67.34 335.634 63.668C337.402 59.928 339.85 57.038 342.978 54.998C346.106 52.89 349.812 51.836 354.096 51.836C360.284 51.836 366.166 53.944 371.742 58.16L372.558 53.06H378.066V103.346C378.066 109.738 376.162 114.702 372.354 118.238C368.546 121.842 362.834 123.644 355.218 123.644ZM355.32 94.268C357.904 94.268 360.556 93.792 363.276 92.84C365.996 91.888 368.478 90.562 370.722 88.862V64.178C368.478 62.478 365.996 61.152 363.276 60.2C360.556 59.248 357.904 58.772 355.32 58.772C350.764 58.772 347.16 60.404 344.508 63.668C341.924 66.932 340.632 71.216 340.632 76.52C340.632 81.824 341.924 86.108 344.508 89.372C347.16 92.636 350.764 94.268 355.32 94.268ZM418.67 102.224C410.442 102.224 403.948 99.98 399.188 95.492C394.496 91.004 392.15 84.85 392.15 77.03C392.15 71.862 393.17 67.408 395.21 63.668C397.25 59.928 400.106 57.038 403.778 54.998C407.45 52.89 411.734 51.836 416.63 51.836C423.77 51.836 429.414 53.978 433.562 58.262C437.71 62.478 439.784 68.19 439.784 75.398C439.784 76.078 439.784 76.758 439.784 77.438C439.784 78.118 439.716 78.832 439.58 79.58H399.8C400.276 84.612 402.146 88.488 405.41 91.208C408.674 93.928 413.162 95.288 418.874 95.288C424.586 95.288 429.992 93.622 435.092 90.29L438.254 96.308C432.338 100.252 425.81 102.224 418.67 102.224ZM400.004 73.052H432.338C431.862 68.564 430.264 65.062 427.544 62.546C424.824 60.03 421.152 58.772 416.528 58.772C411.972 58.772 408.232 60.03 405.308 62.546C402.452 65.062 400.684 68.564 400.004 73.052ZM293.806 218.224C283.878 218.224 276.33 215.232 271.162 209.248L276.16 203.638C280.852 208.534 287.006 210.982 294.622 210.982C300.062 210.982 304.278 209.724 307.27 207.208C310.33 204.624 311.86 201.088 311.86 196.6C311.86 194.084 311.214 192.146 309.922 190.786C308.698 189.358 306.624 188.27 303.7 187.522L293.806 184.87C285.238 182.558 280.954 177.696 280.954 170.284C280.954 166.068 281.94 162.43 283.912 159.37C285.952 156.242 288.808 153.828 292.48 152.128C296.22 150.36 300.606 149.476 305.638 149.476C313.73 149.476 320.462 151.89 325.834 156.718L321.244 162.532C316.756 158.656 311.35 156.718 305.026 156.718C299.926 156.718 295.914 157.84 292.99 160.084C290.134 162.328 288.706 165.354 288.706 169.162C288.706 171.406 289.318 173.242 290.542 174.67C291.834 176.03 293.942 177.084 296.866 177.832L306.76 180.484C311.112 181.64 314.342 183.476 316.45 185.992C318.558 188.44 319.612 191.67 319.612 195.682C319.612 202.618 317.3 208.126 312.676 212.206C308.052 216.218 301.762 218.224 293.806 218.224ZM327.576 217L337.776 169.06H342.774L342.57 172.834C346.582 169.502 350.628 167.836 354.708 167.836C356.884 167.836 358.686 168.278 360.114 169.162C361.542 170.046 362.528 171.27 363.072 172.834C367.424 169.502 371.538 167.836 375.414 167.836C378.202 167.836 380.378 168.618 381.942 170.182C383.574 171.678 384.39 173.752 384.39 176.404C384.39 177.152 384.254 178.206 383.982 179.566L376.026 217H368.988L376.74 180.382C376.944 179.362 377.046 178.478 377.046 177.73C377.046 175.486 375.686 174.364 372.966 174.364C369.77 174.364 366.608 175.758 363.48 178.546L355.32 217H348.282L356.034 180.382C356.238 179.362 356.34 178.478 356.34 177.73C356.34 175.486 354.98 174.364 352.26 174.364C350.764 174.364 349.2 174.704 347.568 175.384C345.936 176.064 344.338 177.084 342.774 178.444L334.614 217H327.576ZM407.246 218.224C402.078 218.224 398.032 217.102 395.108 214.858C392.252 212.546 390.824 209.384 390.824 205.372C390.824 194.492 397.488 189.052 410.816 189.052H430.298L430.706 186.91C430.842 186.026 430.978 185.21 431.114 184.462C431.25 183.714 431.318 183 431.318 182.32C431.318 179.6 430.4 177.662 428.564 176.506C426.796 175.35 423.838 174.772 419.69 174.772C413.638 174.772 407.756 176.064 402.044 178.648L399.8 172.324C406.396 169.332 413.366 167.836 420.71 167.836C432.746 167.836 438.764 172.086 438.764 180.586C438.764 182.286 438.56 184.156 438.152 186.196L431.624 217H426.116L426.32 212.104C420.268 216.184 413.91 218.224 407.246 218.224ZM408.776 211.288C415.44 211.288 421.424 209.35 426.728 205.474L428.87 195.58H409.898C406.158 195.58 403.302 196.362 401.33 197.926C399.358 199.422 398.372 201.666 398.372 204.658C398.372 209.078 401.84 211.288 408.776 211.288ZM453.052 217L463.252 169.06H469.168L468.352 177.322C475.22 170.998 482.564 167.836 490.384 167.836C495.144 167.836 498.714 168.924 501.094 171.1L497.218 177.118C495.11 175.622 492.526 174.874 489.466 174.874C481.374 174.874 473.826 178.75 466.822 186.502L460.396 217H453.052ZM539.046 218.224C528.846 218.224 523.746 214.042 523.746 205.678C523.746 204.522 523.814 203.434 523.95 202.414C524.086 201.326 524.222 200.442 524.358 199.762L529.458 175.792H513.648L515.076 169.06H530.886L534.15 153.556L542.31 149.476L538.23 169.06H558.63L557.202 175.792H536.802L531.804 199.354C531.668 200.034 531.532 200.816 531.396 201.7C531.26 202.516 531.192 203.366 531.192 204.25C531.192 206.698 531.872 208.5 533.232 209.656C534.592 210.744 536.734 211.288 539.658 211.288C543.806 211.288 548.022 210.268 552.306 208.228L553.938 214.858C551.558 215.946 549.144 216.762 546.696 217.306C544.316 217.918 541.766 218.224 539.046 218.224ZM600.662 218.224C590.462 218.224 585.362 214.042 585.362 205.678C585.362 204.522 585.43 203.434 585.566 202.414C585.702 201.326 585.838 200.442 585.974 199.762L596.276 151.312H575.876L577.304 144.58H605.048L593.42 199.354C593.284 200.034 593.148 200.816 593.012 201.7C592.876 202.516 592.808 203.366 592.808 204.25C592.808 206.698 593.488 208.5 594.848 209.656C596.208 210.744 598.35 211.288 601.274 211.288C605.422 211.288 609.638 210.268 613.922 208.228L615.554 214.858C613.174 215.946 610.76 216.762 608.312 217.306C605.932 217.918 603.382 218.224 600.662 218.224ZM626.782 239.644C624.266 239.644 622.124 239.372 620.356 238.828C618.52 238.352 616.786 237.57 615.154 236.482L618.52 230.26C620.9 231.892 623.654 232.708 626.782 232.708C629.774 232.708 632.324 231.926 634.432 230.362C636.608 228.866 638.852 226.18 641.164 222.304L644.122 217.408L634.024 169.06H641.674L649.528 208.636L673.6 169.06H681.556L646.876 225.976C644.768 229.444 642.728 232.164 640.756 234.136C638.852 236.108 636.778 237.502 634.534 238.318C632.358 239.202 629.774 239.644 626.782 239.644Z" fill="black"/>
</svg>
